<?xml version="1.0" encoding="UTF-8"?>
<svg width="123px" height="86px" viewBox="0 0 123 86" version="1.1" xmlns="http://www.w3.org/2000/svg" xmlns:xlink="http://www.w3.org/1999/xlink">
    <title>Logo 1</title>
    <g id="Logo-1" stroke="none" stroke-width="1" fill="none" fill-rule="evenodd">
        <g id="Mt.-Fuji" transform="translate(91.000000, 41.000000)" stroke="#000000">
            <path d="M10.5,1.90297535 L19.2069858,16 L1.79301419,16 L10.5,1.90297535 Z" id="Triangle" stroke-width="2"></path>
            <rect id="Rectangle" x="5.5" y="9.5" width="10" height="1"></rect>
        </g>
        <g id="Sun" transform="translate(85.039748, 16.884385)">
            <path d="M16.3522524,21.3536153 C17.3155858,21.3536153 18.1655858,21.189282 18.9022524,20.8606153 C19.6389191,20.5319486 20.2537524,20.0899486 20.7467524,19.5346153 C21.2397524,18.979282 21.6137524,18.3446153 21.8687524,17.6306153 C22.1237524,16.9166153 22.2512524,16.1799486 22.2512524,15.4206153 C22.2512524,14.5819486 22.0954191,13.819782 21.7837524,13.1341153 C21.4720858,12.4484486 21.0499191,11.8591153 20.5172524,11.3661153 C19.9845858,10.8731153 19.3754191,10.4934486 18.6897524,10.2271153 C18.0040858,9.96078197 17.2759191,9.8276153 16.5052524,9.8276153 C15.5532524,9.8276153 14.7089191,9.99194864 13.9722524,10.3206153 C13.2355858,10.649282 12.6207524,11.091282 12.1277524,11.6466153 C11.6347524,12.2019486 11.2607524,12.833782 11.0057524,13.5421153 C10.7507524,14.2504486 10.6232524,14.9899486 10.6232524,15.7606153 C10.6232524,16.599282 10.7790858,17.3614486 11.0907524,18.0471153 C11.4024191,18.732782 11.8245858,19.3221153 12.3572524,19.8151153 C12.8899191,20.3081153 13.4990858,20.687782 14.1847524,20.9541153 C14.8704191,21.2204486 15.5929191,21.3536153 16.3522524,21.3536153 Z M16.6242524,20.6396153 C15.9555858,20.6396153 15.3747524,20.483782 14.8817524,20.1721153 C14.3887524,19.8604486 13.9779191,19.4354486 13.6492524,18.8971153 C13.3205858,18.358782 13.0769191,17.7496153 12.9182524,17.0696153 C12.7595858,16.3896153 12.6802524,15.664282 12.6802524,14.8936153 C12.6802524,14.032282 12.8134191,13.2786153 13.0797524,12.6326153 C13.3460858,11.9866153 13.7427524,11.482282 14.2697524,11.1196153 C14.7967524,10.7569486 15.4455858,10.5756153 16.2162524,10.5756153 C16.8849191,10.5756153 17.4685858,10.725782 17.9672524,11.0261153 C18.4659191,11.3264486 18.8795858,11.745782 19.2082524,12.2841153 C19.5369191,12.8224486 19.7834191,13.4316153 19.9477524,14.1116153 C20.1120858,14.7916153 20.1942524,15.511282 20.1942524,16.2706153 C20.1942524,17.1319486 20.0610858,17.891282 19.7947524,18.5486153 C19.5284191,19.2059486 19.1317524,19.718782 18.6047524,20.0871153 C18.0777524,20.4554486 17.4175858,20.6396153 16.6242524,20.6396153 Z" id="O" fill="#000000" fill-rule="nonzero"></path>
            <rect id="Rectangle" stroke="#C4964D" fill="#C4964D" x="1.46025243" y="15.6156153" width="5" height="1"></rect>
            <rect id="Rectangle" stroke="#C4964D" fill="#C4964D" transform="translate(15.960252, 3.115615) rotate(90.000000) translate(-15.960252, -3.115615) " x="13.4602524" y="2.6156153" width="5" height="1"></rect>
            <rect id="Rectangle" stroke="#C4964D" fill="#C4964D" transform="translate(27.960252, 16.115615) scale(1, -1) translate(-27.960252, -16.115615) " x="25.4602524" y="15.6156153" width="5" height="1"></rect>
            <path d="M29.1477102,6.14341931 L29.1394764,7.10692388 L24.454656,7.13693699 L24.4628899,6.17343243 L29.1477102,6.14341931 Z" id="Rectangle" stroke="#C4964D" fill="#C4964D" transform="translate(26.801183, 6.640178) scale(1, -1) rotate(35.000000) translate(-26.801183, -6.640178) "></path>
            <path d="M7.81272071,6.54364983 L7.80448686,7.5071544 L3.11966651,7.53716751 L3.12790036,6.57366294 L7.81272071,6.54364983 Z" id="Rectangle" stroke="#C4964D" fill="#C4964D" transform="translate(5.466194, 7.040409) scale(-1, -1) rotate(35.000000) translate(-5.466194, -7.040409) "></path>
        </g>
        <path d="M21.744,58.252 C21.872,58.26 21.96,58.2 22.008,58.072 L22.008,58.072 L27.192,46.936 C27.272,46.792 27.348,46.716 27.42,46.708 C27.492,46.7 27.528,46.768 27.528,46.912 C27.576,47.936 27.624,48.908 27.672,49.828 C27.72,50.748 27.756,51.68 27.78,52.624 C27.804,53.568 27.824,54.592 27.84,55.696 C27.84,56.224 27.744,56.612 27.552,56.86 C27.36,57.108 27.008,57.272 26.496,57.352 C26.272,57.384 26.1,57.44 25.98,57.52 C25.86,57.6 25.8,57.696 25.8,57.808 C25.8,57.92 25.86,57.996 25.98,58.036 C26.1,58.076 26.248,58.096 26.424,58.096 C26.84,58.096 27.2,58.084 27.504,58.06 C27.808,58.036 28.096,58.016 28.368,58 C28.64,57.984 28.936,57.976 29.256,57.976 C29.608,57.976 29.948,57.984 30.276,58 C30.604,58.016 30.936,58.036 31.272,58.06 C31.608,58.084 31.976,58.096 32.376,58.096 C32.568,58.096 32.72,58.072 32.832,58.024 C32.944,57.976 33,57.904 33,57.808 C33,57.68 32.94,57.584 32.82,57.52 C32.7,57.456 32.528,57.4 32.304,57.352 C31.744,57.24 31.312,57.052 31.008,56.788 C30.704,56.524 30.536,56.16 30.504,55.696 C30.456,54.736 30.4,53.832 30.336,52.984 C30.272,52.136 30.22,51.288 30.18,50.44 C30.14,49.592 30.096,48.7 30.048,47.764 C30,46.828 29.976,45.792 29.976,44.656 C29.96,44.352 30.024,44.108 30.168,43.924 C30.312,43.74 30.512,43.592 30.768,43.48 C30.944,43.4 31.136,43.32 31.344,43.24 C31.552,43.16 31.744,43.088 31.92,43.024 C32.128,42.944 32.28,42.872 32.376,42.808 C32.472,42.744 32.52,42.648 32.52,42.52 C32.52,42.408 32.456,42.332 32.328,42.292 C32.2,42.252 32.08,42.232 31.968,42.232 C31.648,42.232 31.184,42.268 30.576,42.34 C29.968,42.412 29.392,42.448 28.848,42.448 L28.848,42.448 L27.936,42.448 C27.792,42.448 27.696,42.552 27.648,42.76 C27.584,43 27.516,43.292 27.444,43.636 C27.372,43.98 27.288,44.336 27.192,44.704 L27.192,44.704 L22.92,53.896 C22.872,53.992 22.796,54.032 22.692,54.016 C22.588,54 22.512,53.944 22.464,53.848 L22.464,53.848 L18.768,44.656 C18.656,44.336 18.556,44.024 18.468,43.72 C18.38,43.416 18.296,43.12 18.216,42.832 C18.184,42.704 18.12,42.604 18.024,42.532 C17.928,42.46 17.824,42.424 17.712,42.424 C17.472,42.424 17.172,42.416 16.812,42.4 C16.452,42.384 16.072,42.364 15.672,42.34 C15.272,42.316 14.904,42.296 14.568,42.28 C14.232,42.264 13.968,42.256 13.776,42.256 C13.552,42.256 13.368,42.272 13.224,42.304 C13.08,42.336 13.008,42.424 13.008,42.568 C13.008,42.68 13.06,42.78 13.164,42.868 C13.268,42.956 13.408,43.016 13.584,43.048 C13.904,43.112 14.192,43.188 14.448,43.276 C14.704,43.364 14.96,43.512 15.216,43.72 C15.392,43.832 15.508,43.964 15.564,44.116 C15.62,44.268 15.648,44.432 15.648,44.608 C15.664,44.736 15.672,44.872 15.672,45.016 L15.672,45.016 L15.672,45.4 C15.64,46.264 15.576,47.252 15.48,48.364 C15.384,49.476 15.272,50.644 15.144,51.868 C15.016,53.092 14.872,54.304 14.712,55.504 C14.632,56.048 14.46,56.472 14.196,56.776 C13.932,57.08 13.608,57.28 13.224,57.376 C12.984,57.44 12.796,57.5 12.66,57.556 C12.524,57.612 12.456,57.696 12.456,57.808 C12.456,57.92 12.516,57.996 12.636,58.036 C12.756,58.076 12.92,58.096 13.128,58.096 C13.432,58.096 13.7,58.088 13.932,58.072 L13.932,58.072 L14.628,58.024 C14.86,58.008 15.128,58 15.432,58 C15.752,58 16,58.004 16.176,58.012 C16.352,58.02 16.552,58.036 16.776,58.06 C17,58.084 17.328,58.096 17.76,58.096 C17.952,58.096 18.112,58.072 18.24,58.024 C18.368,57.976 18.432,57.904 18.432,57.808 C18.432,57.68 18.364,57.584 18.228,57.52 C18.092,57.456 17.904,57.4 17.664,57.352 C17.136,57.24 16.732,57.02 16.452,56.692 C16.172,56.364 16.032,55.976 16.032,55.528 C16.032,54.536 16.052,53.576 16.092,52.648 C16.132,51.72 16.196,50.784 16.284,49.84 C16.372,48.896 16.472,47.92 16.584,46.912 C16.6,46.8 16.652,46.736 16.74,46.72 C16.828,46.704 16.896,46.744 16.944,46.84 C17.776,48.824 18.572,50.724 19.332,52.54 C20.092,54.356 20.816,56.2 21.504,58.072 C21.536,58.184 21.616,58.244 21.744,58.252 Z M51.947714,58.096 C52.139714,58.096 52.287714,58.072 52.391714,58.024 C52.495714,57.976 52.547714,57.904 52.547714,57.808 C52.547714,57.68 52.491714,57.584 52.379714,57.52 C52.267714,57.456 52.091714,57.4 51.851714,57.352 C51.259714,57.224 50.811714,57.04 50.507714,56.8 C50.203714,56.56 50.051714,56.176 50.051714,55.648 L50.051714,55.648 L50.051714,44.8 C50.051714,44.256 50.175714,43.872 50.423714,43.648 C50.671714,43.424 51.107714,43.24 51.731714,43.096 C51.955714,43.048 52.127714,42.988 52.247714,42.916 C52.367714,42.844 52.427714,42.744 52.427714,42.616 C52.427714,42.504 52.371714,42.428 52.259714,42.388 C52.147714,42.348 51.995714,42.328 51.803714,42.328 C51.403714,42.328 51.047714,42.336 50.735714,42.352 C50.423714,42.368 50.119714,42.38 49.823714,42.388 C49.527714,42.396 49.211714,42.4 48.875714,42.4 C48.523714,42.4 48.195714,42.392 47.891714,42.376 C47.587714,42.36 47.271714,42.344 46.943714,42.328 C46.615714,42.312 46.243714,42.304 45.827714,42.304 C45.651714,42.304 45.507714,42.328 45.395714,42.376 C45.283714,42.424 45.227714,42.504 45.227714,42.616 C45.227714,42.84 45.459714,43 45.923714,43.096 C46.531714,43.224 46.947714,43.404 47.171714,43.636 C47.395714,43.868 47.507714,44.256 47.507714,44.8 L47.507714,44.8 L47.507714,55.648 C47.507714,56.192 47.363714,56.584 47.075714,56.824 C46.787714,57.064 46.339714,57.24 45.731714,57.352 C45.267714,57.448 45.035714,57.6 45.035714,57.808 C45.035714,57.92 45.095714,57.996 45.215714,58.036 C45.335714,58.076 45.483714,58.096 45.659714,58.096 C46.059714,58.096 46.435714,58.084 46.787714,58.06 C47.139714,58.036 47.479714,58.016 47.807714,58 C48.135714,57.984 48.491714,57.976 48.875714,57.976 C49.227714,57.976 49.559714,57.984 49.871714,58 C50.183714,58.016 50.507714,58.036 50.843714,58.06 C51.179714,58.084 51.547714,58.096 51.947714,58.096 Z M79.919428,58.432 C80.079428,58.432 80.215428,58.38 80.327428,58.276 C80.439428,58.172 80.495428,57.968 80.495428,57.664 C80.495428,57.536 80.483428,57.34 80.459428,57.076 C80.435428,56.812 80.407428,56.5 80.375428,56.14 C80.343428,55.78 80.327428,55.408 80.327428,55.024 L80.327428,55.024 L80.327428,52.768 C80.327428,51.936 80.335428,51.088 80.351428,50.224 C80.367428,49.36 80.379428,48.536 80.387428,47.752 C80.395428,46.968 80.407428,46.284 80.423428,45.7 C80.439428,45.116 80.447428,44.696 80.447428,44.44 C80.463428,44.024 80.575428,43.724 80.783428,43.54 C80.991428,43.356 81.383428,43.208 81.959428,43.096 C82.455428,43 82.703428,42.84 82.703428,42.616 C82.703428,42.504 82.643428,42.424 82.523428,42.376 C82.403428,42.328 82.247428,42.304 82.055428,42.304 C81.591428,42.304 81.227428,42.312 80.963428,42.328 C80.699428,42.344 80.455428,42.356 80.231428,42.364 C80.007428,42.372 79.711428,42.376 79.343428,42.376 L77.639428,42.376 C77.463428,42.376 77.279428,42.4 77.087428,42.448 C76.895428,42.496 76.799428,42.568 76.799428,42.664 C76.799428,42.792 76.895428,42.896 77.087428,42.976 C77.279428,43.056 77.487428,43.112 77.711428,43.144 C78.079428,43.224 78.423428,43.388 78.743428,43.636 C79.063428,43.884 79.231428,44.184 79.247428,44.536 C79.263428,45.464 79.271428,46.396 79.271428,47.332 C79.271428,48.268 79.267428,49.16 79.259428,50.008 C79.251428,50.856 79.247428,51.6 79.247428,52.24 L79.247428,53.68 C79.231428,53.984 79.151428,54.136 79.007428,54.136 C78.927428,54.136 78.835428,54.08 78.731428,53.968 C78.627428,53.856 78.543428,53.768 78.479428,53.704 C78.319428,53.512 78.051428,53.196 77.675428,52.756 C77.299428,52.316 76.855428,51.792 76.343428,51.184 C75.831428,50.576 75.287428,49.928 74.711428,49.24 C74.135428,48.552 73.559428,47.868 72.983428,47.188 C72.407428,46.508 71.867428,45.864 71.363428,45.256 C70.859428,44.648 70.419428,44.12 70.043428,43.672 C69.667428,43.224 69.391428,42.896 69.215428,42.688 C69.151428,42.592 69.079428,42.508 68.999428,42.436 C68.919428,42.364 68.807428,42.328 68.663428,42.328 C68.231428,42.328 67.855428,42.324 67.535428,42.316 C67.215428,42.308 66.911428,42.296 66.623428,42.28 C66.335428,42.264 66.035428,42.252 65.723428,42.244 C65.411428,42.236 65.047428,42.224 64.631428,42.208 C64.535428,42.208 64.415428,42.232 64.271428,42.28 C64.127428,42.328 64.055428,42.424 64.055428,42.568 C64.055428,42.712 64.155428,42.832 64.355428,42.928 C64.555428,43.024 64.695428,43.088 64.775428,43.12 C65.447428,43.344 65.999428,43.64 66.431428,44.008 C66.863428,44.376 67.079428,44.984 67.079428,45.832 C67.079428,47.144 67.055428,48.416 67.007428,49.648 C66.959428,50.88 66.899428,51.992 66.827428,52.984 C66.755428,53.976 66.687428,54.776 66.623428,55.384 C66.591428,55.864 66.471428,56.276 66.263428,56.62 C66.055428,56.964 65.735428,57.2 65.303428,57.328 C65.063428,57.392 64.879428,57.46 64.751428,57.532 C64.623428,57.604 64.559428,57.696 64.559428,57.808 C64.559428,57.92 64.627428,57.996 64.763428,58.036 C64.899428,58.076 65.055428,58.096 65.231428,58.096 C65.535428,58.096 65.791428,58.088 65.999428,58.072 C66.207428,58.056 66.419428,58.04 66.635428,58.024 C66.851428,58.008 67.111428,58 67.415428,58 C67.735428,58 67.991428,58.004 68.183428,58.012 C68.375428,58.02 68.587428,58.036 68.819428,58.06 C69.051428,58.084 69.383428,58.096 69.815428,58.096 C70.007428,58.096 70.167428,58.072 70.295428,58.024 C70.423428,57.976 70.487428,57.904 70.487428,57.808 C70.487428,57.68 70.419428,57.584 70.283428,57.52 C70.147428,57.456 69.967428,57.4 69.743428,57.352 C69.135428,57.224 68.703428,56.988 68.447428,56.644 C68.191428,56.3 68.063428,55.896 68.063428,55.432 C68.063428,54.504 68.067428,53.508 68.075428,52.444 C68.083428,51.38 68.087428,50.344 68.087428,49.336 C68.087428,48.328 68.095428,47.44 68.111428,46.672 C68.111428,46.576 68.127428,46.468 68.159428,46.348 C68.191428,46.228 68.239428,46.168 68.303428,46.168 C68.367428,46.168 68.435428,46.2 68.507428,46.264 C68.579428,46.328 68.655428,46.416 68.735428,46.528 C68.927428,46.72 69.211428,47.032 69.587428,47.464 C69.963428,47.896 70.395428,48.392 70.883428,48.952 C71.371428,49.512 71.891428,50.108 72.443428,50.74 C72.995428,51.372 73.547428,52.008 74.099428,52.648 C74.651428,53.288 75.171428,53.888 75.659428,54.448 C76.147428,55.008 76.571428,55.5 76.931428,55.924 C77.291428,56.348 77.559428,56.656 77.735428,56.848 C78.151428,57.408 78.579428,57.812 79.019428,58.06 C79.459428,58.308 79.759428,58.432 79.919428,58.432 Z" id="MIN" fill="#000000" fill-rule="nonzero"></path>
    </g>
</svg>